<?xml version="1.0" encoding="utf-8"?>
<!-- Generator: Adobe Illustrator 21.0.2, SVG Export Plug-In . SVG Version: 6.00 Build 0)  -->
<svg width="150" height="150" version="1.1" id="Layer_1" xmlns="http://www.w3.org/2000/svg" xmlns:xlink="http://www.w3.org/1999/xlink" x="0px" y="0px"
	 viewBox="0 0 512 512" style="enable-background:new 0 0 512 512;" xml:space="preserve">
<style type="text/css">
	.st0{fill:#F7DAA3;}
	.st1{fill:#F4C97A;}
	.st2{fill:#F2C063;}
	.st3{fill:#F6D28F;}
	.st4{fill:#F5CE87;}
</style>
<g>
	<polygon class="st0" points="421.3,166.8 241.6,42.1 262.2,216.7 337,244.2 	"/>
	<polygon class="st1" points="26.7,143.1 241.6,42.1 262.2,216.7 	"/>
	<polygon class="st2" points="339,52.9 315.7,93.6 421.3,166.8 	"/>
	<polygon class="st3" points="445.4,18.1 421.3,166.8 339,52.9 	"/>
	<polygon class="st2" points="485.3,46.4 445.4,18.1 440.8,46.4 	"/>
	<polygon class="st4" points="231.9,0 339,52.9 315.7,93.6 241.6,42.1 	"/>
	<polygon class="st2" points="26.7,105.1 231.9,0 241.6,42.1 64.4,125.4 	"/>
	<polygon class="st2" points="189.4,370.1 337,244.2 262.2,216.7 	"/>
	<polygon class="st1" points="324.1,512 337,244.2 189.4,370.1 	"/>
</g>
</svg>
